# Blender 3.5.1
# www.blender.org
mtllib Guardrail.mtl
o Blocks
v -91.972244 25.548841 51.594044
v 57.942551 25.796080 51.594044
v -92.247047 64.131065 51.594048
v 54.850754 63.007679 51.594048
v -91.393135 66.299530 51.029202
v 54.521683 66.100044 51.029202
v -92.388260 61.297520 51.594048
v 57.513275 60.010925 51.594051
v 58.950394 21.410131 52.259727
v -92.637924 20.090263 52.259727
v 59.214890 10.903870 54.922440
v -94.985016 10.903873 54.922443
v 33.217178 20.090261 52.259727
v 34.998520 10.903870 54.922440
v 30.737591 66.387527 51.029202
v 31.777145 63.303089 51.594048
v 32.657261 60.223862 51.594051
v 32.771847 25.548841 51.594044
v 21.731930 20.090261 52.259727
v 23.108723 10.903870 54.922440
v 19.554955 66.406097 51.029202
v 20.554417 63.391315 51.594048
v 21.248455 60.321598 51.594051
v 21.387737 25.548841 51.594044
v -54.899185 20.090263 52.259727
v -56.221607 10.903870 54.922440
v -55.057091 66.530037 51.029202
v -54.933720 63.979973 51.594048
v -54.872627 60.973713 51.594051
v -54.568577 25.548843 51.594044
v -66.384445 20.090265 52.259727
v -68.111420 10.903870 54.922440
v -66.239738 66.548607 51.029202
v -66.156464 64.068199 51.594048
v -66.281448 61.071445 51.594051
v -65.952698 25.548843 51.594044
v -70.744080 3.372555 54.922436
v -94.985016 3.372559 54.922436
v 58.174667 3.372555 54.922436
v 37.777328 3.372555 54.922436
v 21.768211 3.372555 54.922436
v -54.468658 3.372555 54.922436
v 34.998520 10.903881 44.546974
v 37.777328 3.372562 44.546974
v 59.214890 10.903881 44.546974
v 58.950394 21.410141 44.546974
v 57.942551 25.796085 44.546970
v 57.513275 60.010925 44.546978
v 55.283447 63.207390 44.546978
v 55.054230 66.339882 44.546978
v 30.737595 66.387527 44.546978
v 19.554955 66.406097 44.546978
v -55.057091 66.530037 44.546978
v -66.239738 66.548607 44.546978
v -92.011688 66.450363 44.546978
v -92.670685 64.272278 44.546978
v -92.670685 61.297520 44.546978
v -91.972244 25.548847 44.546970
v -92.637924 20.090267 44.546974
v -94.985016 10.903881 44.546974
v -70.744080 3.372562 44.546974
v -68.111412 10.903881 44.546974
v -56.221603 10.903881 44.546974
v 23.108727 10.903881 44.546974
v -91.972244 25.548841 37.499901
v -65.952698 25.548843 37.499901
v -66.281448 61.071449 37.499908
v -92.388260 61.297520 37.499908
v -92.247040 64.131058 37.499908
v -66.156464 64.068199 37.499908
v -66.239738 66.548599 38.064758
v -91.393127 66.299522 38.064758
v 54.850754 63.007679 37.499908
v 54.521683 66.100037 38.064758
v 57.513275 60.010925 37.499905
v 31.777145 63.303089 37.499908
v 32.657261 60.223862 37.499905
v 57.942551 25.796080 37.499901
v 32.771847 25.548841 37.499901
v 33.217178 20.090261 36.834225
v 58.950394 21.410131 36.834225
v -92.637924 20.090263 36.834225
v 34.998520 10.903872 34.171505
v 59.214890 10.903872 34.171505
v -94.985016 10.903876 34.171505
v 30.737591 66.387520 38.064758
v 20.554417 63.391315 37.499908
v 21.248455 60.321598 37.499905
v 21.387737 25.548841 37.499901
v 21.731930 20.090261 36.834225
v 23.108723 10.903872 34.171505
v 19.554955 66.406097 38.064758
v -54.933720 63.979977 37.499908
v -54.872627 60.973713 37.499908
v -54.568577 25.548843 37.499901
v -54.899185 20.090263 36.834225
v -56.221607 10.903872 34.171505
v -55.057091 66.530029 38.064758
v -66.384445 20.090265 36.834225
v -68.111420 10.903872 34.171505
v -94.985016 3.372562 34.171513
v -70.744080 3.372558 34.171509
v -94.985016 3.372565 44.546974
v 37.777328 3.372558 34.171509
v 58.174667 3.372558 34.171513
v -54.468658 3.372558 34.171513
v 21.768211 3.372558 34.171509
v -54.468658 3.372562 44.546974
v 58.174667 3.372562 44.546974
v 21.768211 3.372562 44.546974
vn -0.0000 -0.0000 1.0000
vn -0.0009 0.2363 0.9717
vn 0.9927 0.0957 0.0739
vn -0.0041 0.1334 0.9911
vn -0.9926 0.1211 -0.0000
vn -0.0069 0.2604 0.9655
vn -0.9689 0.2475 -0.0000
vn 0.0022 0.1804 0.9836
vn -0.0000 0.1211 0.9926
vn -0.0000 0.2784 0.9605
vn 0.0009 0.1824 0.9832
vn 0.0009 0.1991 0.9800
vn 0.0010 0.2192 0.9757
vn -1.0000 -0.0000 -0.0000
vn -0.9382 -0.3462 -0.0000
vn -0.9740 -0.2267 -0.0000
vn -0.0000 -1.0000 -0.0000
vn 0.9325 0.3611 -0.0000
vn 0.9999 0.0125 -0.0000
vn 0.9460 0.3241 -0.0000
vn 0.0027 1.0000 0.0032
vn 0.0121 0.9992 0.0379
vn 0.0102 0.9999 -0.0000
vn 0.0018 1.0000 -0.0000
vn -0.9988 0.0127 0.0479
vn -0.9969 0.0497 0.0609
vn -0.9999 0.0122 -0.0000
vn -1.0000 -0.0063 -0.0000
vn -0.9382 0.3369 0.0795
vn 0.7719 0.6354 0.0215
vn 0.8201 0.5722 -0.0000
vn -0.9998 -0.0186 0.0050
vn -0.9998 -0.0195 -0.0000
vn 0.9746 0.2240 -0.0000
vn 0.9997 0.0252 -0.0000
vn 0.0017 1.0000 -0.0000
vn -0.0041 1.0000 -0.0000
vn -0.0038 1.0000 -0.0000
vn -0.0047 0.9998 0.0200
vn 0.9440 -0.3300 -0.0000
vn 0.9906 -0.1368 -0.0000
vn 0.9845 -0.1752 -0.0000
vn -0.0000 -0.0000 -1.0000
vn -0.0009 0.2363 -0.9717
vn 0.9927 0.0957 -0.0739
vn -0.0041 0.1334 -0.9911
vn -0.0069 0.2604 -0.9655
vn 0.0022 0.1804 -0.9836
vn -0.0000 0.1211 -0.9926
vn -0.0000 0.2784 -0.9605
vn 0.0009 0.1824 -0.9832
vn 0.0009 0.1991 -0.9800
vn 0.0010 0.2192 -0.9757
vn 0.0027 1.0000 -0.0032
vn 0.0121 0.9992 -0.0379
vn -0.9988 0.0127 -0.0479
vn -0.9969 0.0497 -0.0609
vn -0.9382 0.3369 -0.0795
vn 0.7719 0.6354 -0.0215
vn -0.9998 -0.0186 -0.0050
vn -0.0047 0.9998 -0.0200
vt 0.031312 0.365534
vt -0.971035 0.449699
vt 0.964507 0.384308
vt -0.034627 0.425173
vt 0.028235 0.903630
vt -0.966011 0.914187
vt 0.950522 0.887519
vt -0.054803 0.894039
vt 0.031733 0.935802
vt -0.958764 0.937486
vt 0.029546 1.937116
vt -0.055576 0.930070
vt 0.950752 0.932411
vt 0.951597 1.932834
vt 0.028235 0.862365
vt -0.968059 0.884672
vt 0.965690 0.844518
vt -0.035980 0.841141
vt 0.974589 0.309059
vt -0.032872 0.399692
vt -0.969922 0.391494
vt 0.027190 0.289814
vt 0.976227 0.163320
vt -0.022710 0.284037
vt 0.021396 0.163320
vt -0.974415 0.302012
vt 0.815245 0.290751
vt 0.825315 0.141707
vt -0.280855 0.052336
vt 0.799891 0.932972
vt 0.777047 1.934536
vt 0.806328 0.890186
vt 0.811778 0.847471
vt 0.812487 0.366470
vt 0.744126 0.290751
vt 0.754572 0.149632
vt -0.315813 0.052336
vt 0.730646 0.933230
vt 0.680374 1.934536
vt 0.736835 0.891409
vt 0.741132 0.848827
vt 0.741995 0.366470
vt 0.269614 0.290751
vt 0.255474 0.147492
vt -0.680849 0.051152
vt 0.268636 0.934949
vt 0.240440 1.937116
vt 0.269400 0.899575
vt 0.269778 0.857873
vt 0.271661 0.366470
vt 0.198495 0.290751
vt 0.176440 0.145057
vt -0.708321 0.051152
vt 0.199391 0.935206
vt 0.183201 1.937116
vt 0.199907 0.900799
vt 0.199133 0.859229
vt 0.201169 0.366470
vt 0.160679 0.062500
vt 0.152901 1.050211
vt -0.730709 0.051152
vt 0.024101 0.058848
vt -0.974844 0.224536
vt 0.104116 1.049579
vt 0.967225 0.068934
vt 0.900113 1.062846
vt -0.023404 0.176179
vt 0.845083 0.060289
vt -0.265801 0.052336
vt 0.845075 1.062846
vt 0.740509 0.060289
vt 0.741017 1.052317
vt -0.333660 0.052336
vt 0.268493 0.051543
vt -0.661721 0.051152
vt 0.257761 1.051264
vt -0.280855 0.153476
vt -0.265801 0.153476
vt 0.846479 1.147474
vt -0.082273 0.275196
vt -0.081314 0.399593
vt -0.082959 0.453851
vt -0.077775 0.847887
vt -0.077414 0.895521
vt -0.077118 0.934541
vt 0.952731 1.804525
vt 0.777047 1.804525
vt 0.680374 1.804525
vt 0.240440 1.804525
vt 0.183201 1.804525
vt -0.925814 0.935757
vt 0.029546 1.804525
vt -0.923201 0.909323
vt -0.925260 0.879787
vt -0.921880 0.438464
vt -0.916603 0.375664
vt -0.914616 0.291564
vt 0.152901 1.108199
vt -0.730709 0.151240
vt -0.708321 0.151240
vt -0.680849 0.151240
vt -0.315813 0.153476
vt 0.031312 0.365534
vt -0.971035 0.449699
vt 0.201169 0.366470
vt 0.199133 0.859229
vt 0.028235 0.862365
vt -0.968059 0.884672
vt 0.028235 0.903630
vt -0.966011 0.914187
vt 0.199907 0.900799
vt 0.199391 0.935206
vt 0.183201 1.937116
vt 0.031733 0.935802
vt -0.958764 0.937486
vt 0.029546 1.937116
vt 0.950522 0.887519
vt -0.054803 0.894039
vt -0.055576 0.930070
vt 0.950752 0.932411
vt 0.951597 1.932834
vt 0.965690 0.844518
vt -0.035980 0.841141
vt 0.806328 0.890186
vt 0.811778 0.847471
vt 0.964507 0.384308
vt -0.034627 0.425173
vt 0.812487 0.366470
vt 0.815245 0.290751
vt 0.974589 0.309059
vt -0.032872 0.399692
vt -0.969922 0.391494
vt 0.027190 0.289814
vt 0.825315 0.141707
vt -0.280855 0.052336
vt 0.976227 0.163320
vt -0.022710 0.284037
vt 0.021396 0.163320
vt -0.974415 0.302012
vt 0.799891 0.932972
vt 0.777047 1.934536
vt 0.736835 0.891409
vt 0.741132 0.848827
vt 0.741995 0.366470
vt 0.744126 0.290751
vt 0.754572 0.149632
vt -0.315813 0.052336
vt 0.730646 0.933230
vt 0.680374 1.934536
vt 0.269400 0.899575
vt 0.269778 0.857873
vt 0.271661 0.366470
vt 0.269614 0.290751
vt 0.255474 0.147492
vt -0.680849 0.051152
vt 0.268636 0.934949
vt 0.240440 1.937116
vt 0.198495 0.290751
vt 0.176440 0.145057
vt -0.708321 0.051152
vt 0.024101 0.058848
vt -0.974844 0.224536
vt 0.104116 1.049579
vt 0.160679 0.062500
vt 0.152901 1.050211
vt -0.730709 0.051152
vt -0.915425 0.217241
vt 0.104116 1.107567
vt 0.845083 0.060289
vt -0.265801 0.052336
vt 0.845075 1.062846
vt 0.967225 0.068934
vt 0.900113 1.062846
vt -0.023404 0.176179
vt 0.268493 0.051543
vt -0.661721 0.051152
vt 0.257761 1.051264
vt 0.740509 0.060289
vt 0.741017 1.052317
vt -0.333660 0.052336
vt -0.661721 0.151240
vt 0.257761 1.157161
vt 0.901517 1.147474
vt -0.080910 0.188158
vt 0.741017 1.156108
vt -0.333660 0.153476
s 1
usemtl Concrete_Block
f 1/1/1 36/58/1 35/57/1 7/15/1
s 0
f 34/56/2 33/54/2 5/9/2 3/5/2
f 49/84/3 50/85/3 6/12/3 4/8/3
s 1
f 4/7/1 16/32/1 17/33/1 8/17/1
s 0
f 2/3/4 18/34/4 13/27/4 9/19/4
f 1/2/5 58/95/5 59/96/5 10/21/5
f 9/19/6 13/27/6 14/28/6 11/23/6
f 10/21/7 59/96/7 60/97/7 12/26/7
s 1
f 18/34/1 2/3/1 8/17/1 17/33/1
s 0
f 4/7/8 6/13/8 15/30/8 16/32/8
s 1
f 16/32/1 22/40/1 23/41/1 17/33/1
s 0
f 18/34/9 24/42/9 19/35/9 13/27/9
f 13/27/10 19/35/10 20/36/10 14/28/10
s 1
f 18/34/1 17/33/1 23/41/1 24/42/1
s 0
f 16/32/11 15/30/11 21/38/11 22/40/11
s 1
f 22/40/1 28/48/1 29/49/1 23/41/1
s 0
f 30/50/9 25/43/9 19/35/9 24/42/9
f 25/43/10 26/44/10 20/36/10 19/35/10
s 1
f 30/50/1 24/42/1 23/41/1 29/49/1
s 0
f 22/40/12 21/38/12 27/46/12 28/48/12
s 1
f 28/48/1 34/56/1 35/57/1 29/49/1
s 0
f 36/58/9 31/51/9 25/43/9 30/50/9
f 31/51/10 32/52/10 26/44/10 25/43/10
s 1
f 36/58/1 30/50/1 29/49/1 35/57/1
s 0
f 28/48/13 27/46/13 33/54/13 34/56/13
s 1
f 34/56/1 3/5/1 7/15/1 35/57/1
s 0
f 1/1/9 10/22/9 31/51/9 36/58/9
f 10/22/10 12/25/10 32/52/10 31/51/10
f 32/52/1 12/25/1 38/62/1 37/59/1
f 60/97/14 103/167/14 38/63/14 12/26/14
f 11/23/1 14/28/1 40/68/1 39/65/1
f 43/77/15 44/78/15 40/69/15 14/29/15
f 20/36/1 26/44/1 42/74/1 41/71/1
f 63/101/16 108/181/16 42/75/16 26/45/16
s 1
f 37/60/17 38/64/17 103/168/17 61/98/17
f 8/18/18 2/4/19 47/82/19 48/83/20
f 15/31/21 6/14/22 50/86/23 51/87/24
f 7/16/25 3/6/26 56/93/27 57/94/28
s 0
f 56/93/29 3/6/29 5/10/29 55/91/29
s 1
f 4/8/30 8/18/18 48/83/20 49/84/31
f 1/2/32 7/16/25 57/94/28 58/95/33
s 0
f 2/4/34 9/20/34 46/81/34 47/82/34
f 9/20/35 11/24/35 45/80/35 46/81/35
s 1
f 39/66/17 40/70/17 44/79/17 109/183/17
f 21/39/36 15/31/21 51/87/24 52/88/36
f 14/29/17 20/37/17 64/102/17 43/77/17
f 27/47/36 21/39/36 52/88/36 53/89/36
f 41/72/17 42/76/17 108/182/17 110/185/17
f 33/55/37 27/47/36 53/89/36 54/90/38
f 26/45/17 32/53/17 62/100/17 63/101/17
f 5/11/39 33/55/37 54/90/38 55/92/38
s 0
f 32/53/40 37/61/40 61/99/40 62/100/40
f 11/24/41 39/67/41 109/184/41 45/80/41
f 20/37/42 41/73/42 110/186/42 64/102/42
s 1
f 65/103/43 68/107/43 67/106/43 66/105/43
s 0
f 70/111/44 69/109/44 72/114/44 71/112/44
f 49/84/45 73/118/45 74/119/45 50/85/45
s 1
f 73/117/43 75/122/43 77/125/43 76/124/43
s 0
f 78/126/46 81/130/46 80/129/46 79/128/46
f 65/104/5 82/132/5 59/96/5 58/95/5
f 81/130/47 84/136/47 83/134/47 80/129/47
f 82/132/7 85/139/7 60/97/7 59/96/7
s 1
f 79/128/43 77/125/43 75/122/43 78/126/43
s 0
f 73/117/48 76/124/48 86/140/48 74/120/48
s 1
f 76/124/43 77/125/43 88/143/43 87/142/43
s 0
f 79/128/49 80/129/49 90/145/49 89/144/49
f 80/129/50 83/134/50 91/146/50 90/145/50
s 1
f 79/128/43 89/144/43 88/143/43 77/125/43
s 0
f 76/124/51 87/142/51 92/148/51 86/140/51
s 1
f 87/142/43 88/143/43 94/151/43 93/150/43
s 0
f 95/152/49 89/144/49 90/145/49 96/153/49
f 96/153/50 90/145/50 91/146/50 97/154/50
s 1
f 95/152/43 94/151/43 88/143/43 89/144/43
s 0
f 87/142/52 93/150/52 98/156/52 92/148/52
s 1
f 93/150/43 94/151/43 67/106/43 70/111/43
s 0
f 66/105/49 95/152/49 96/153/49 99/158/49
f 99/158/50 96/153/50 97/154/50 100/159/50
s 1
f 66/105/43 67/106/43 94/151/43 95/152/43
s 0
f 93/150/53 70/111/53 71/112/53 98/156/53
s 1
f 70/111/43 67/106/43 68/107/43 69/109/43
s 0
f 65/103/49 66/105/49 99/158/49 82/133/49
f 82/133/50 99/158/50 100/159/50 85/138/50
f 100/159/43 102/164/43 101/161/43 85/138/43
f 60/97/14 85/139/14 101/162/14 103/167/14
f 84/136/43 105/172/43 104/169/43 83/134/43
f 43/77/15 83/135/15 104/170/15 44/78/15
f 91/146/43 107/178/43 106/175/43 97/154/43
f 63/101/16 97/155/16 106/176/16 108/181/16
s 1
f 102/165/17 61/98/17 103/168/17 101/163/17
f 75/123/18 48/83/20 47/82/19 78/127/19
f 86/141/54 51/87/24 50/86/23 74/121/55
f 68/108/56 57/94/28 56/93/27 69/110/57
s 0
f 56/93/58 55/91/58 72/115/58 69/110/58
s 1
f 73/118/59 49/84/31 48/83/20 75/123/18
f 65/104/60 58/95/33 57/94/28 68/108/56
s 0
f 78/127/34 47/82/34 46/81/34 81/131/34
f 81/131/35 46/81/35 45/80/35 84/137/35
s 1
f 105/173/17 109/183/17 44/79/17 104/171/17
f 92/149/36 52/88/36 51/87/24 86/141/54
f 83/135/17 43/77/17 64/102/17 91/147/17
f 98/157/36 53/89/36 52/88/36 92/149/36
f 107/179/17 110/185/17 108/182/17 106/177/17
f 71/113/37 54/90/38 53/89/36 98/157/36
f 97/155/17 63/101/17 62/100/17 100/160/17
f 72/116/61 55/92/38 54/90/38 71/113/37
s 0
f 100/160/40 62/100/40 61/99/40 102/166/40
f 84/137/41 45/80/41 109/184/41 105/174/41
f 91/147/42 64/102/42 110/186/42 107/180/42
